<?xml version="1.0" encoding="utf-8"?>
<!-- Generator: Adobe Illustrator 15.0.0, SVG Export Plug-In . SVG Version: 6.00 Build 0)  -->
<!DOCTYPE svg PUBLIC "-//W3C//DTD SVG 1.1//EN" "http://www.w3.org/Graphics/SVG/1.1/DTD/svg11.dtd">
<svg version="1.1" id="Layer_1" xmlns="http://www.w3.org/2000/svg" xmlns:xlink="http://www.w3.org/1999/xlink" x="0px" y="0px"
	 width="90px" height="90px" viewBox="0 0 90 90" enable-background="new 0 0 90 90" xml:space="preserve">
<circle fill="#FFD329" cx="45.036" cy="44.928" r="44.928"/>
<g>
	<path d="M10.944,41.855l-0.838-6.612l1.419-0.18l0.319,2.515l2.107-0.267l-0.319-2.515l1.419-0.18l0.838,6.612l-1.419,0.18
		l-0.366-2.887l-2.107,0.267l0.366,2.887L10.944,41.855z"/>
	<path d="M18.757,33.993c0.785-0.1,1.466,0.103,2.045,0.607c0.66,0.568,1.059,1.401,1.198,2.496c0.119,0.937,0,1.748-0.356,2.433
		c-0.211,0.404-0.501,0.73-0.87,0.977c-0.331,0.218-0.709,0.356-1.139,0.411c-0.937,0.119-1.716-0.169-2.339-0.861
		c-0.504-0.559-0.818-1.323-0.94-2.292c-0.134-1.054,0.036-1.927,0.509-2.625C17.313,34.479,17.943,34.096,18.757,33.993z
		 M18.901,35.206c-0.439,0.056-0.752,0.304-0.939,0.744c-0.202,0.478-0.264,1.026-0.186,1.642c0.086,0.679,0.284,1.221,0.596,1.628
		c0.129,0.17,0.297,0.3,0.502,0.389c0.204,0.089,0.409,0.121,0.612,0.095c0.194-0.024,0.371-0.1,0.531-0.222
		c0.16-0.125,0.282-0.282,0.366-0.473c0.217-0.49,0.282-1.074,0.196-1.752c-0.081-0.639-0.275-1.161-0.583-1.564
		C19.706,35.313,19.341,35.15,18.901,35.206z"/>
	<path d="M23.311,40.287l-0.838-6.612l2.359-0.299c0.394-0.05,0.717-0.058,0.971-0.028c0.253,0.033,0.479,0.112,0.679,0.237
		c0.399,0.247,0.631,0.625,0.695,1.132c0.083,0.649-0.174,1.161-0.771,1.535c0.839,0.169,1.31,0.664,1.414,1.484
		c0.091,0.717-0.112,1.29-0.609,1.717c-0.311,0.266-0.75,0.435-1.319,0.506L23.311,40.287z M24.23,36.168l0.635-0.081
		c0.349-0.044,0.591-0.128,0.726-0.253c0.182-0.174,0.255-0.396,0.221-0.668c-0.038-0.304-0.187-0.505-0.446-0.604
		c-0.138-0.054-0.371-0.061-0.696-0.02l-0.635,0.081L24.23,36.168z M24.587,38.978l0.766-0.097c0.397-0.05,0.669-0.151,0.817-0.305
		c0.186-0.191,0.259-0.444,0.219-0.756c-0.046-0.365-0.216-0.604-0.51-0.718c-0.172-0.066-0.444-0.077-0.816-0.029l-0.707,0.089
		L24.587,38.978z"/>
	<path d="M30.703,32.479c0.785-0.1,1.467,0.103,2.045,0.607c0.66,0.568,1.059,1.401,1.198,2.496c0.119,0.937,0,1.748-0.356,2.433
		c-0.211,0.404-0.501,0.73-0.87,0.977c-0.33,0.218-0.709,0.356-1.139,0.411c-0.937,0.119-1.716-0.169-2.339-0.861
		c-0.504-0.559-0.817-1.323-0.94-2.292c-0.134-1.054,0.036-1.927,0.509-2.625C29.258,32.964,29.889,32.582,30.703,32.479z
		 M30.847,33.691c-0.439,0.056-0.752,0.304-0.939,0.744c-0.202,0.478-0.264,1.026-0.186,1.642c0.086,0.679,0.284,1.221,0.596,1.628
		c0.129,0.17,0.297,0.3,0.502,0.389c0.205,0.089,0.409,0.121,0.612,0.095c0.194-0.024,0.371-0.1,0.531-0.222
		c0.16-0.125,0.282-0.282,0.366-0.473c0.217-0.49,0.282-1.074,0.196-1.752c-0.081-0.639-0.275-1.161-0.582-1.564
		C31.651,33.798,31.286,33.636,30.847,33.691z"/>
	<path d="M34.418,32.16l4.016-0.509l0.156,1.23l-2.597,0.329l0.682,5.382l-1.419,0.18L34.418,32.16z"/>
	<path d="M41.679,31.086c0.785-0.1,1.467,0.103,2.045,0.608c0.66,0.568,1.059,1.401,1.198,2.496c0.119,0.937,0,1.747-0.356,2.432
		c-0.211,0.404-0.501,0.73-0.87,0.977c-0.33,0.218-0.709,0.356-1.139,0.41c-0.936,0.119-1.716-0.168-2.339-0.86
		c-0.504-0.559-0.817-1.323-0.94-2.292c-0.134-1.054,0.036-1.928,0.509-2.625C40.235,31.572,40.866,31.189,41.679,31.086z
		 M41.823,32.3c-0.439,0.056-0.752,0.304-0.939,0.744c-0.202,0.478-0.264,1.025-0.186,1.642c0.086,0.679,0.284,1.221,0.596,1.628
		c0.129,0.17,0.297,0.3,0.502,0.389c0.205,0.089,0.409,0.121,0.612,0.095c0.194-0.024,0.371-0.1,0.531-0.222
		c0.16-0.125,0.282-0.282,0.366-0.473c0.217-0.49,0.282-1.074,0.196-1.752c-0.081-0.639-0.275-1.161-0.583-1.564
		C42.628,32.406,42.263,32.244,41.823,32.3z"/>
	<path d="M50.991,35.547l0.527-0.067l0.28,2.204l-1.42,0.18l-0.125-0.993l-3.289,0.417l0.125,0.993l-1.419,0.18l-0.279-2.204
		l0.237-0.03c0.216-0.027,0.366-0.119,0.449-0.275c0.084-0.157,0.123-0.422,0.119-0.796l-0.057-4.481l4.166-0.528L50.991,35.547z
		 M49.571,35.727l-0.531-4.19l-1.481,0.188l0.031,3.274c0.003,0.439-0.047,0.772-0.149,0.999L49.571,35.727z"/>
	<path d="M51.479,29.997l1.361-0.172l0.497,3.919l1.706-3.74l-0.058-0.451l1.361-0.173l0.839,6.612l-1.361,0.173l-0.498-3.924
		l-1.701,3.775l0.054,0.426l-1.362,0.167L51.479,29.997z"/>
	<path d="M65.73,34.908l-7.416,0.94l-0.839-6.612l1.419-0.18l0.685,5.401l1.579-0.2l-0.685-5.401l1.419-0.18l0.686,5.401l1.579-0.2
		l-0.685-5.401l1.419-0.18L65.73,34.908z"/>
	<path d="M66.859,34.765l-0.839-6.612l4.219-0.535l0.153,1.211l-2.8,0.355l0.18,1.415l2.558-0.325l0.146,1.152l-2.558,0.325
		l0.205,1.623l2.858-0.363l0.153,1.211L66.859,34.765z"/>
	<path d="M72.114,34.099l-0.839-6.612l1.42-0.18l0.318,2.515l2.107-0.267l-0.318-2.515l1.419-0.18l0.839,6.612l-1.42,0.18
		l-0.365-2.887l-2.107,0.267l0.365,2.887L72.114,34.099z"/>
	<path d="M15.075,48.367l0.348,2.744l1.686-0.214c0.946-0.12,1.754-0.122,2.427-0.007c0.672,0.116,1.289,0.367,1.85,0.752
		c1.215,0.831,1.929,2.075,2.139,3.733c0.218,1.721-0.189,3.107-1.221,4.159c-0.425,0.433-0.937,0.766-1.533,0.998
		c-0.597,0.233-1.407,0.414-2.429,0.544l-5.034,0.638l-2.012-15.867l9.638-1.223l0.374,2.952L15.075,48.367z M15.774,53.878
		l0.57,4.499l1.488-0.188c0.512-0.065,0.909-0.158,1.193-0.281c0.284-0.122,0.517-0.302,0.7-0.537
		c0.336-0.452,0.46-1.027,0.372-1.726c-0.098-0.773-0.365-1.322-0.8-1.646c-0.435-0.323-1.059-0.434-1.873-0.33L15.774,53.878z"/>
	<path d="M30.28,43.073c1.883-0.239,3.52,0.247,4.909,1.457c1.583,1.367,2.541,3.363,2.874,5.99c0.285,2.248,0,4.195-0.854,5.838
		c-0.507,0.971-1.204,1.751-2.089,2.344c-0.792,0.526-1.703,0.854-2.734,0.984c-2.248,0.285-4.119-0.402-5.613-2.063
		c-1.21-1.343-1.962-3.177-2.257-5.503c-0.32-2.525,0.087-4.625,1.222-6.297C26.813,44.238,28.327,43.32,30.28,43.073z
		 M30.625,45.982c-1.054,0.134-1.805,0.729-2.254,1.787c-0.484,1.147-0.633,2.461-0.445,3.941c0.207,1.628,0.683,2.93,1.429,3.906
		c0.312,0.41,0.713,0.721,1.206,0.934c0.491,0.214,0.981,0.289,1.469,0.228c0.465-0.06,0.89-0.237,1.273-0.533
		c0.384-0.297,0.677-0.675,0.878-1.134c0.521-1.176,0.677-2.578,0.471-4.205c-0.194-1.535-0.66-2.787-1.397-3.756
		C32.556,46.238,31.68,45.85,30.625,45.982z"/>
	<path d="M41.208,58.178l-2.012-15.869l3.406-0.432l0.765,6.033l5.058-0.641l-0.766-6.033l3.407-0.432l2.012,15.868l-3.406,0.433
		l-0.879-6.929l-5.057,0.641l0.878,6.929L41.208,58.178z"/>
	<path d="M56.314,56.487l-0.343-2.709c0.479,0.058,0.874,0.065,1.185,0.026c0.441-0.057,0.779-0.223,1.012-0.5
		s0.469-0.799,0.711-1.561l-6.348-11.125l3.79-0.481l3.841,7.936l1.739-8.643l3.72-0.472l-3.498,13.307
		c-0.372,1.41-0.874,2.422-1.505,3.038c-0.631,0.614-1.563,1.001-2.794,1.157C57.382,56.517,56.879,56.525,56.314,56.487z"/>
	<path d="M76.306,47.479l3.406-0.432c0.089,1.697-0.205,3.164-0.883,4.4c-0.929,1.685-2.412,2.656-4.45,2.914
		c-1.93,0.245-3.545-0.223-4.845-1.404c-1.577-1.447-2.529-3.457-2.855-6.029c-0.32-2.527,0.082-4.665,1.207-6.414
		c1.033-1.604,2.522-2.53,4.468-2.776c2.085-0.264,3.814,0.368,5.189,1.894c0.779,0.87,1.286,1.884,1.521,3.044l-3.37,0.439
		c-0.18-0.607-0.41-1.09-0.692-1.448c-0.604-0.798-1.38-1.136-2.325-1.016c-1.055,0.134-1.797,0.736-2.229,1.806
		c-0.441,1.112-0.564,2.446-0.366,4.004c0.2,1.58,0.666,2.861,1.396,3.839c0.665,0.899,1.51,1.285,2.532,1.155
		c0.799-0.102,1.385-0.477,1.76-1.127C76.144,49.679,76.322,48.729,76.306,47.479z"/>
</g>
<rect x="-211" y="-188" fill="#FFD329" width="68" height="68"/>
<rect x="-125" y="-188" fill="#FF9A1E" width="68" height="68"/>
<rect x="-34" y="-188" fill="#53BAF2" width="68" height="68"/>
<rect x="56" y="-188" fill="#1063AD" width="68" height="68"/>
<rect x="145" y="-188" fill="#1BADA2" width="68" height="68"/>
<rect x="234" y="-188" fill="#BFCB44" width="68" height="68"/>
<g>
	<path d="M-17.583-67.575l2.033-0.258l4.104,8.885l-2.067,0.262l-0.839-1.995l-2.639,0.334l-0.32,2.143l-2.034,0.258L-17.583-67.575
		z M-16.754-61.899l1.798-0.228l-1.301-3.081L-16.754-61.899z"/>
	<path d="M-10.625-59.052l-1.175-9.257l1.938-0.246l0.492,3.872l0.312-0.04l2.201-4.214l2.075-0.263l-2.523,4.881l4.029,4.333
		l-2.075,0.263l-3.5-3.698l-0.353,0.045l0.517,4.076L-10.625-59.052z"/>
	<path d="M-0.643-60.317l-0.959-7.562l-2.244,0.285l-0.215-1.695l6.489-0.823l0.216,1.695l-2.259,0.286l0.959,7.562L-0.643-60.317z"
		/>
	<path d="M3.527-70.252l1.905-0.241l0.697,5.486l2.389-5.237l-0.08-0.631l1.906-0.242l1.174,9.257l-1.906,0.242l-0.695-5.493
		l-2.384,5.285l0.076,0.597l-1.907,0.234L3.527-70.252z"/>
	<path d="M13.096-62.059l-1.174-9.257l3.303-0.419c0.553-0.07,1.005-0.083,1.361-0.037c0.354,0.043,0.67,0.154,0.95,0.33
		c0.56,0.348,0.884,0.875,0.974,1.585c0.115,0.909-0.244,1.625-1.078,2.149c1.174,0.237,1.834,0.931,1.979,2.078
		c0.127,1.004-0.156,1.805-0.854,2.403c-0.436,0.372-1.051,0.608-1.846,0.709L13.096-62.059z M14.383-67.825l0.89-0.112
		c0.487-0.062,0.827-0.181,1.016-0.356c0.255-0.244,0.357-0.555,0.31-0.935c-0.055-0.425-0.262-0.706-0.625-0.844
		c-0.192-0.077-0.518-0.086-0.975-0.028l-0.889,0.112L14.383-67.825z M14.883-63.891l1.071-0.136
		c0.556-0.07,0.938-0.213,1.144-0.428c0.262-0.268,0.363-0.62,0.308-1.058c-0.065-0.511-0.303-0.846-0.713-1.006
		c-0.242-0.093-0.623-0.106-1.142-0.041l-0.99,0.125L14.883-63.891z"/>
	<path d="M19.838-72.32l1.904-0.242l0.695,5.486l2.389-5.236l-0.078-0.631l1.904-0.242l1.174,9.257l-1.906,0.242l-0.695-5.493
		l-2.383,5.284l0.076,0.597l-1.908,0.235L19.838-72.32z"/>
	<path d="M29.407-64.127l-1.174-9.257l2.938-0.373c0.731-0.093,1.299-0.096,1.699-0.009c0.594,0.137,1.076,0.441,1.453,0.912
		c0.322,0.409,0.523,0.931,0.604,1.563c0.136,1.063-0.14,1.925-0.822,2.585c-0.475,0.465-1.189,0.757-2.148,0.879l-0.982,0.125
		l0.421,3.323L29.407-64.127z M30.768-69.316l0.963-0.122c0.527-0.067,0.879-0.238,1.051-0.512c0.164-0.264,0.221-0.596,0.17-0.994
		c-0.057-0.452-0.238-0.775-0.543-0.971c-0.234-0.155-0.604-0.199-1.105-0.136l-0.867,0.11L30.768-69.316z"/>
	<path d="M37.239-74.526l2.035-0.258l4.104,8.885l-2.068,0.262l-0.84-1.995l-2.637,0.335l-0.322,2.142l-2.033,0.258L37.239-74.526z
		 M38.069-68.85l1.797-0.228l-1.3-3.081L38.069-68.85z"/>
	<path d="M43.502-65.784l-0.201-1.58c0.279,0.033,0.512,0.039,0.691,0.016c0.465-0.059,0.74-0.351,0.826-0.877
		c0.036-0.252,0.003-0.79-0.102-1.613l-0.703-5.547L46-75.637l0.729,5.737c0.084,0.66,0.113,1.189,0.09,1.587
		c-0.021,0.398-0.104,0.752-0.244,1.065c-0.367,0.827-1.096,1.31-2.187,1.448C44.127-65.766,43.831-65.762,43.502-65.784z"/>
	<path d="M-17.724-51.642c1.1-0.14,2.054,0.143,2.863,0.849c0.924,0.797,1.482,1.961,1.677,3.494c0.166,1.311,0,2.445-0.499,3.404
		c-0.296,0.566-0.702,1.021-1.219,1.367c-0.461,0.307-0.993,0.498-1.596,0.574c-1.311,0.167-2.402-0.234-3.273-1.204
		c-0.706-0.783-1.145-1.854-1.317-3.209c-0.187-1.474,0.052-2.699,0.714-3.674C-19.746-50.964-18.865-51.498-17.724-51.642z
		 M-17.522-49.945c-0.615,0.078-1.054,0.424-1.315,1.042c-0.283,0.67-0.369,1.437-0.26,2.3c0.12,0.949,0.398,1.709,0.833,2.278
		c0.183,0.239,0.416,0.421,0.703,0.545c0.286,0.124,0.573,0.168,0.856,0.132c0.271-0.033,0.521-0.137,0.743-0.311
		c0.224-0.174,0.396-0.393,0.513-0.661c0.304-0.687,0.396-1.505,0.274-2.454c-0.114-0.895-0.386-1.625-0.815-2.19
		C-16.397-49.797-16.908-50.023-17.522-49.945z"/>
	<path d="M-11.349-42.832l-1.174-9.256l1.986-0.252l0.446,3.52l2.95-0.374l-0.446-3.52l1.987-0.252l1.174,9.256l-1.986,0.252
		L-6.924-47.5l-2.95,0.375l0.512,4.041L-11.349-42.832z"/>
	<path d="M-1.083-51.816l0.082,4.889c0.01,0.697-0.031,1.213-0.121,1.545c-0.149,0.559-0.402,0.963-0.759,1.218
		c-0.356,0.254-0.911,0.429-1.667,0.524l-0.199-1.567c0.314-0.058,0.528-0.192,0.642-0.404c0.114-0.212,0.163-0.58,0.153-1.103
		l-0.117-6.571l5.832-0.739l1.174,9.258l-1.987,0.252L0.99-52.078L-1.083-51.816z"/>
	<path d="M6.533-54.505l2.035-0.258l4.104,8.886l-2.068,0.262l-0.84-1.995l-2.637,0.335l-0.322,2.143l-2.034,0.259L6.533-54.505z
		 M7.363-48.829l1.797-0.228l-1.3-3.081L7.363-48.829z"/>
	<path d="M12.797-45.762l-0.201-1.58c0.279,0.033,0.51,0.037,0.69,0.016c0.466-0.061,0.741-0.352,0.826-0.877
		c0.037-0.253,0.003-0.791-0.101-1.614l-0.705-5.547l1.988-0.252l0.728,5.737c0.083,0.659,0.114,1.189,0.091,1.587
		c-0.021,0.397-0.104,0.752-0.244,1.065c-0.367,0.825-1.097,1.311-2.188,1.447C13.42-45.745,13.125-45.74,12.797-45.762z"/>
	<path d="M17.94-46.545l-1.174-9.257l1.988-0.252l0.446,3.52l2.95-0.374l-0.446-3.52l1.986-0.252l1.174,9.256l-1.987,0.252
		l-0.512-4.042l-2.949,0.374l0.512,4.042L17.94-46.545z"/>
	<path d="M27.903-57.214l1.904-0.242l0.695,5.486l2.389-5.236l-0.079-0.631l1.905-0.242l1.174,9.257l-1.905,0.242l-0.696-5.493
		l-2.383,5.284l0.076,0.597l-1.906,0.235L27.903-57.214z"/>
	<path d="M39.233-56.928l0.082,4.888c0.01,0.697-0.03,1.212-0.121,1.545c-0.15,0.557-0.402,0.962-0.759,1.217
		c-0.355,0.253-0.911,0.429-1.667,0.525L36.57-50.32c0.313-0.058,0.526-0.193,0.642-0.405c0.113-0.211,0.164-0.579,0.152-1.101
		l-0.115-6.573l5.831-0.739l1.175,9.257l-1.988,0.252l-0.957-7.562L39.233-56.928z"/>
	<path d="M44.667-59.34l1.906-0.242l0.695,5.486l2.389-5.236l-0.08-0.631l1.906-0.242l1.174,9.257l-1.906,0.242l-0.695-5.493
		l-2.383,5.284l0.074,0.597l-1.906,0.235L44.667-59.34z"/>
</g>
<g>
	<path d="M-16.675-23.753l-1.58-12.458l2.674-0.34l0.602,4.736l3.97-0.504l-0.601-4.736l2.674-0.338l1.58,12.457l-2.674,0.34
		l-0.69-5.439l-3.97,0.504l0.689,5.439L-16.675-23.753z"/>
	<path d="M-3.869-38.035l2.737-0.348l5.522,11.959l-2.783,0.353l-1.129-2.687l-3.551,0.451l-0.433,2.883l-2.737,0.349L-3.869-38.035
		z M-2.753-30.396l2.42-0.307l-1.75-4.146L-2.753-30.396z"/>
	<path d="M10.37-27.182l-1.111-8.763c-0.222,0.251-0.455,0.431-0.701,0.539c-0.247,0.108-0.627,0.198-1.145,0.271l-0.238-1.881
		c0.781-0.123,1.328-0.375,1.639-0.759c0.311-0.383,0.492-1.028,0.551-1.938l1.88-0.238l1.58,12.458L10.37-27.182z"/>
	<path d="M21.124-28.545l-2.383,0.302L18.4-30.928l-4.335,0.551l-0.289-2.281l3.484-8.057l2.283-0.288l0.982,7.758l1.287-0.164
		l0.256,2.017l-1.287,0.164L21.124-28.545z M18.144-32.943l-0.548-4.316l-1.752,4.607L18.144-32.943z"/>
	<path d="M25.963-42.086c0.803-0.104,1.543,0.063,2.224,0.496c1.323,0.832,2.168,2.688,2.53,5.559
		c0.252,1.984,0.119,3.564-0.398,4.743c-0.564,1.302-1.462,2.03-2.691,2.187c-1.394,0.178-2.535-0.392-3.425-1.707
		c-0.684-1.002-1.144-2.437-1.38-4.305c-0.257-2.025-0.124-3.629,0.4-4.809C23.801-41.207,24.715-41.928,25.963-42.086z
		 M26.186-40.029c-0.98,0.125-1.282,1.666-0.907,4.623c0.19,1.516,0.457,2.619,0.795,3.313c0.339,0.692,0.765,1.007,1.274,0.941
		c0.979-0.125,1.283-1.652,0.912-4.586c-0.195-1.539-0.461-2.654-0.797-3.349C27.129-39.78,26.704-40.096,26.186-40.029z"/>
	<path d="M34.504-30.242l-1.111-8.764c-0.223,0.253-0.456,0.432-0.702,0.541c-0.245,0.107-0.627,0.197-1.144,0.271l-0.238-1.881
		c0.781-0.124,1.328-0.377,1.639-0.76c0.311-0.382,0.493-1.028,0.553-1.938l1.881-0.238l1.578,12.457L34.504-30.242z"/>
	<path d="M45.256-31.605l-2.383,0.303l-0.341-2.684l-4.335,0.549l-0.29-2.281l3.485-8.056l2.283-0.288l0.982,7.758l1.287-0.164
		l0.255,2.018l-1.287,0.163L45.256-31.605z M42.277-36.004L41.73-40.32l-1.753,4.608L42.277-36.004z"/>
	<path d="M50.094-45.146c0.805-0.102,1.545,0.063,2.225,0.496c1.322,0.834,2.168,2.688,2.531,5.561
		c0.252,1.983,0.117,3.563-0.398,4.742c-0.564,1.303-1.463,2.03-2.691,2.188c-1.395,0.177-2.535-0.393-3.426-1.707
		c-0.684-1.003-1.143-2.438-1.379-4.305c-0.258-2.026-0.125-3.629,0.4-4.811C47.934-44.266,48.846-44.988,50.094-45.146z
		 M50.318-43.09c-0.979,0.125-1.281,1.666-0.906,4.623c0.191,1.516,0.457,2.619,0.795,3.313s0.764,1.007,1.273,0.941
		c0.98-0.124,1.283-1.652,0.912-4.586c-0.195-1.539-0.461-2.655-0.797-3.349C51.262-42.84,50.836-43.154,50.318-43.09z"/>
</g>
<text transform="matrix(0.9921 -0.1258 0.1258 0.9921 44.6846 64.1973)" font-family="'TeleGroteskHeadline-Ultra'" font-size="14"> </text>
</svg>
